<mxfile host="65bd71144e">
    <diagram id="Xsu5mOwfMEbNpgmyTCdF" name="Page-1">
        <mxGraphModel dx="745" dy="512" grid="1" gridSize="10" guides="1" tooltips="1" connect="1" arrows="1" fold="1" page="1" pageScale="1" pageWidth="850" pageHeight="1100" math="0" shadow="0">
            <root>
                <mxCell id="0"/>
                <mxCell id="1" parent="0"/>
                <UserObject label="" lucidchartObjectId="3N-W15VSAnXd" id="AjDh1uSV3ibtFnoDATO1-33">
                    <mxCell style="html=1;jettySize=18;whiteSpace=wrap;fontSize=13;strokeColor=#3a414a;strokeOpacity=100;strokeWidth=0.8;rounded=0;startArrow=none;endArrow=block;endFill=1;entryX=0.25;entryY=1;entryDx=0;entryDy=0;exitX=0.5;exitY=0;exitDx=0;exitDy=0;" parent="1" source="5" target="AjDh1uSV3ibtFnoDATO1-9" edge="1">
                        <mxGeometry width="100" height="100" relative="1" as="geometry">
                            <Array as="points"/>
                        </mxGeometry>
                    </mxCell>
                </UserObject>
                <mxCell id="AjDh1uSV3ibtFnoDATO1-34" value="mis." style="text;html=1;resizable=0;labelBackgroundColor=default;align=center;verticalAlign=middle;fontColor=#333333;fontSize=13.3;" parent="AjDh1uSV3ibtFnoDATO1-33" vertex="1">
                    <mxGeometry x="-0.6308127966721984" relative="1" as="geometry">
                        <mxPoint x="19" y="-29" as="offset"/>
                    </mxGeometry>
                </mxCell>
                <UserObject label="" lucidchartObjectId="0p-WljsQMSKl" id="AjDh1uSV3ibtFnoDATO1-12">
                    <mxCell style="html=1;jettySize=18;whiteSpace=wrap;fontSize=13;strokeColor=#3a414a;strokeOpacity=100;strokeWidth=0.8;rounded=1;arcSize=12;edgeStyle=orthogonalEdgeStyle;startArrow=none;endArrow=block;endFill=1;exitX=0.75;exitY=1;entryX=0.5;entryY=0;exitDx=0;exitDy=0;entryDx=0;entryDy=0;" parent="1" source="AjDh1uSV3ibtFnoDATO1-2" target="AjDh1uSV3ibtFnoDATO1-6" edge="1">
                        <mxGeometry width="100" height="100" relative="1" as="geometry">
                            <Array as="points"/>
                        </mxGeometry>
                    </mxCell>
                </UserObject>
                <mxCell id="AjDh1uSV3ibtFnoDATO1-13" value="richiesta&lt;br&gt;pagamento" style="text;html=1;resizable=0;labelBackgroundColor=default;align=center;verticalAlign=middle;fontColor=#333333;fontSize=13.3;" parent="AjDh1uSV3ibtFnoDATO1-12" vertex="1">
                    <mxGeometry x="-0.5245796733307666" relative="1" as="geometry">
                        <mxPoint y="17" as="offset"/>
                    </mxGeometry>
                </mxCell>
                <UserObject label="Ardeeno DataLayer" lucidchartObjectId="0m-WhWAMUIxB" id="AjDh1uSV3ibtFnoDATO1-1">
                    <mxCell style="html=1;overflow=block;blockSpacing=1;whiteSpace=wrap;fontSize=13.3;fontColor=#3a414a;spacing=3.8;verticalAlign=top;strokeColor=#3a414a;strokeOpacity=100;fillOpacity=0;rounded=1;absoluteArcSize=1;arcSize=9;fillColor=#000000;strokeWidth=0.8;" parent="1" vertex="1">
                        <mxGeometry x="110" y="177" width="150" height="173" as="geometry"/>
                    </mxCell>
                </UserObject>
                <UserObject label="GPS" lucidchartObjectId="Vk-WHXRrRi~m" id="AjDh1uSV3ibtFnoDATO1-5">
                    <mxCell style="html=1;overflow=block;blockSpacing=1;whiteSpace=wrap;fontSize=13.3;fontColor=#3a414a;spacing=9;strokeColor=#3a414a;strokeOpacity=100;rounded=1;absoluteArcSize=1;arcSize=9;strokeWidth=0.8;" parent="1" vertex="1">
                        <mxGeometry x="600" y="282" width="120" height="45" as="geometry"/>
                    </mxCell>
                </UserObject>
                <UserObject label="Ardeeno DB" lucidchartObjectId="ll-We2PPIdd6" id="AjDh1uSV3ibtFnoDATO1-8">
                    <mxCell style="html=1;overflow=block;blockSpacing=1;whiteSpace=wrap;fontSize=13.3;fontColor=#3a414a;spacing=9;strokeColor=#3a414a;strokeOpacity=100;rounded=1;absoluteArcSize=1;arcSize=9;strokeWidth=0.8;" parent="1" vertex="1">
                        <mxGeometry x="125" y="206" width="120" height="45" as="geometry"/>
                    </mxCell>
                </UserObject>
                <UserObject label="Ardeeno&lt;br&gt;Server" lucidchartObjectId="Jl-WSXr9GluP" id="AjDh1uSV3ibtFnoDATO1-9">
                    <mxCell style="html=1;overflow=block;blockSpacing=1;whiteSpace=wrap;fontSize=13.3;fontColor=#3a414a;spacing=9;strokeColor=#3a414a;strokeOpacity=100;rounded=1;absoluteArcSize=1;arcSize=9;strokeWidth=0.8;" parent="1" vertex="1">
                        <mxGeometry x="125" y="281" width="120" height="48" as="geometry"/>
                    </mxCell>
                </UserObject>
                <UserObject label="IoT System 1" lucidchartObjectId="2l-WcpgqR~d0" id="AjDh1uSV3ibtFnoDATO1-10">
                    <mxCell style="html=1;overflow=block;blockSpacing=1;whiteSpace=wrap;fontSize=13.3;fontColor=#3a414a;spacing=9;strokeColor=#3a414a;strokeOpacity=100;rounded=1;absoluteArcSize=1;arcSize=9;strokeWidth=0.8;verticalAlign=top;labelBackgroundColor=default;fillColor=none;" parent="1" vertex="1">
                        <mxGeometry x="40" y="376.38" width="120" height="133.62" as="geometry"/>
                    </mxCell>
                </UserObject>
                <UserObject label="IoT System n" lucidchartObjectId=".l-WjYx.f_q4" id="AjDh1uSV3ibtFnoDATO1-11">
                    <mxCell style="html=1;overflow=block;blockSpacing=1;whiteSpace=wrap;fontSize=13.3;fontColor=#3a414a;spacing=9;strokeColor=#3a414a;strokeOpacity=100;rounded=1;absoluteArcSize=1;arcSize=9;strokeWidth=0.8;" parent="1" vertex="1">
                        <mxGeometry x="200" y="376.38" width="120" height="30" as="geometry"/>
                    </mxCell>
                </UserObject>
                <UserObject label="" lucidchartObjectId="-p-WDt1fh9Ic" id="AjDh1uSV3ibtFnoDATO1-16">
                    <mxCell style="html=1;jettySize=18;whiteSpace=wrap;fontSize=13;strokeColor=#3a414a;strokeOpacity=100;strokeWidth=0.8;rounded=1;arcSize=12;edgeStyle=orthogonalEdgeStyle;startArrow=none;endArrow=block;endFill=1;exitX=0.75;exitY=0;entryX=0.5;entryY=1.008;entryPerimeter=0;exitDx=0;exitDy=0;" parent="1" source="AjDh1uSV3ibtFnoDATO1-2" target="AjDh1uSV3ibtFnoDATO1-3" edge="1">
                        <mxGeometry width="100" height="100" relative="1" as="geometry">
                            <Array as="points"/>
                        </mxGeometry>
                    </mxCell>
                </UserObject>
                <mxCell id="AjDh1uSV3ibtFnoDATO1-17" value="richiesta&lt;br&gt;invio email " style="text;html=1;resizable=0;labelBackgroundColor=default;align=center;verticalAlign=middle;fontColor=#333333;fontSize=13.3;" parent="AjDh1uSV3ibtFnoDATO1-16" vertex="1">
                    <mxGeometry x="0.35091318476931366" relative="1" as="geometry">
                        <mxPoint y="15" as="offset"/>
                    </mxGeometry>
                </mxCell>
                <UserObject label="" lucidchartObjectId="zq-WTpZK2U_e" id="AjDh1uSV3ibtFnoDATO1-20">
                    <mxCell style="html=1;jettySize=18;whiteSpace=wrap;fontSize=13;strokeColor=#3a414a;strokeOpacity=100;strokeWidth=0.8;rounded=1;arcSize=12;edgeStyle=orthogonalEdgeStyle;startArrow=none;endArrow=block;endFill=1;exitX=0.25;exitY=0;entryX=0.998;entryY=0.602;entryPerimeter=0;entryDx=0;entryDy=0;exitDx=0;exitDy=0;" parent="1" source="AjDh1uSV3ibtFnoDATO1-7" target="AjDh1uSV3ibtFnoDATO1-2" edge="1">
                        <mxGeometry width="100" height="100" relative="1" as="geometry">
                            <Array as="points"/>
                        </mxGeometry>
                    </mxCell>
                </UserObject>
                <mxCell id="AjDh1uSV3ibtFnoDATO1-21" value="reviews" style="text;html=1;resizable=0;labelBackgroundColor=default;align=center;verticalAlign=middle;fontColor=#333333;fontSize=13.3;" parent="AjDh1uSV3ibtFnoDATO1-20" vertex="1">
                    <mxGeometry x="-0.926500265920119" relative="1" as="geometry">
                        <mxPoint y="-38" as="offset"/>
                    </mxGeometry>
                </mxCell>
                <UserObject label="" lucidchartObjectId="5q-W9IGrgs.0" id="AjDh1uSV3ibtFnoDATO1-22">
                    <mxCell style="html=1;jettySize=18;whiteSpace=wrap;fontSize=13;strokeColor=#3a414a;strokeOpacity=100;strokeWidth=0.8;rounded=1;arcSize=12;edgeStyle=orthogonalEdgeStyle;startArrow=block;startFill=1;endArrow=block;endFill=1;exitX=-0.003;exitY=0.15;exitPerimeter=0;entryX=1.003;entryY=0.3;entryPerimeter=0;" parent="1" source="AjDh1uSV3ibtFnoDATO1-2" target="AjDh1uSV3ibtFnoDATO1-8" edge="1">
                        <mxGeometry width="100" height="100" relative="1" as="geometry">
                            <Array as="points"/>
                        </mxGeometry>
                    </mxCell>
                </UserObject>
                <mxCell id="AjDh1uSV3ibtFnoDATO1-23" value="scambio dati" style="text;html=1;resizable=0;labelBackgroundColor=default;align=center;verticalAlign=middle;fontColor=#333333;fontSize=13.3;" parent="AjDh1uSV3ibtFnoDATO1-22" vertex="1">
                    <mxGeometry relative="1" as="geometry"/>
                </mxCell>
                <UserObject label="" lucidchartObjectId="ts-WhsV-2qnh" id="AjDh1uSV3ibtFnoDATO1-24">
                    <mxCell style="html=1;jettySize=18;whiteSpace=wrap;fontSize=13;strokeColor=#3a414a;strokeOpacity=100;strokeWidth=0.8;rounded=1;arcSize=12;edgeStyle=orthogonalEdgeStyle;startArrow=none;endArrow=block;endFill=1;exitX=0.5;exitY=-0.004;exitPerimeter=0;entryX=0.5;entryY=1.008;entryPerimeter=0;" parent="1" source="AjDh1uSV3ibtFnoDATO1-9" target="AjDh1uSV3ibtFnoDATO1-8" edge="1">
                        <mxGeometry width="100" height="100" relative="1" as="geometry">
                            <Array as="points"/>
                        </mxGeometry>
                    </mxCell>
                </UserObject>
                <mxCell id="AjDh1uSV3ibtFnoDATO1-25" value="mis." style="text;html=1;resizable=0;labelBackgroundColor=default;align=center;verticalAlign=middle;fontColor=#333333;fontSize=13.3;" parent="AjDh1uSV3ibtFnoDATO1-24" vertex="1">
                    <mxGeometry relative="1" as="geometry">
                        <mxPoint y="4" as="offset"/>
                    </mxGeometry>
                </mxCell>
                <UserObject label="" lucidchartObjectId=".u-WcuNGkAb6" id="AjDh1uSV3ibtFnoDATO1-26">
                    <mxCell style="html=1;jettySize=18;whiteSpace=wrap;fontSize=13;strokeColor=#3a414a;strokeOpacity=100;strokeWidth=0.8;rounded=1;arcSize=12;edgeStyle=orthogonalEdgeStyle;startArrow=none;endArrow=block;endFill=1;exitX=-0.002;exitY=0.5;exitPerimeter=0;entryX=1.001;entryY=0.032;entryPerimeter=0;" parent="1" source="AjDh1uSV3ibtFnoDATO1-4" target="AjDh1uSV3ibtFnoDATO1-2" edge="1">
                        <mxGeometry width="100" height="100" relative="1" as="geometry">
                            <Array as="points"/>
                        </mxGeometry>
                    </mxCell>
                </UserObject>
                <mxCell id="AjDh1uSV3ibtFnoDATO1-27" value="mappa" style="text;html=1;resizable=0;labelBackgroundColor=default;align=center;verticalAlign=middle;fontColor=#333333;fontSize=13.3;" parent="AjDh1uSV3ibtFnoDATO1-26" vertex="1">
                    <mxGeometry x="-0.13643008582668648" relative="1" as="geometry"/>
                </mxCell>
                <UserObject label="" lucidchartObjectId="Lv-WCIdh4S4g" id="AjDh1uSV3ibtFnoDATO1-28">
                    <mxCell style="html=1;jettySize=18;whiteSpace=wrap;fontSize=13;strokeColor=#3a414a;strokeOpacity=100;strokeWidth=0.8;rounded=1;arcSize=12;edgeStyle=orthogonalEdgeStyle;startArrow=none;endArrow=block;endFill=1;exitX=-0.003;exitY=0.372;exitPerimeter=0;entryX=1.003;entryY=0.353;entryPerimeter=0;" parent="1" source="AjDh1uSV3ibtFnoDATO1-5" target="AjDh1uSV3ibtFnoDATO1-2" edge="1">
                        <mxGeometry width="100" height="100" relative="1" as="geometry">
                            <Array as="points"/>
                        </mxGeometry>
                    </mxCell>
                </UserObject>
                <mxCell id="AjDh1uSV3ibtFnoDATO1-29" value="coordinate" style="text;html=1;resizable=0;labelBackgroundColor=default;align=center;verticalAlign=middle;fontColor=#333333;fontSize=13.3;" parent="AjDh1uSV3ibtFnoDATO1-28" vertex="1">
                    <mxGeometry x="-0.16664045542748906" relative="1" as="geometry">
                        <mxPoint x="-5" as="offset"/>
                    </mxGeometry>
                </mxCell>
                <UserObject label="..." lucidchartObjectId="YM-Wz0fWAmKd" id="AjDh1uSV3ibtFnoDATO1-30">
                    <mxCell style="html=1;overflow=block;blockSpacing=1;whiteSpace=wrap;fontSize=13.3;fontColor=#3a414a;spacing=3.8;strokeOpacity=0;fillOpacity=0;rounded=1;absoluteArcSize=1;arcSize=9;fillColor=#ffffff;strokeWidth=0.8;" parent="1" vertex="1">
                        <mxGeometry x="160" y="376" width="41" height="30" as="geometry"/>
                    </mxCell>
                </UserObject>
                <UserObject label="" lucidchartObjectId="bP-WPKIosK98" id="AjDh1uSV3ibtFnoDATO1-37">
                    <mxCell style="html=1;jettySize=18;whiteSpace=wrap;fontSize=13;strokeColor=#3a414a;strokeOpacity=100;strokeWidth=0.8;rounded=0;startArrow=none;endArrow=block;endFill=1;entryX=0.75;entryY=1;entryDx=0;entryDy=0;exitX=0.353;exitY=-0.004;exitDx=0;exitDy=0;exitPerimeter=0;" parent="1" source="AjDh1uSV3ibtFnoDATO1-11" target="AjDh1uSV3ibtFnoDATO1-9" edge="1">
                        <mxGeometry width="100" height="100" relative="1" as="geometry">
                            <Array as="points"/>
                            <mxPoint x="275" y="446" as="sourcePoint"/>
                            <mxPoint x="201.48000000000002" y="382.3599999999999" as="targetPoint"/>
                        </mxGeometry>
                    </mxCell>
                </UserObject>
                <mxCell id="AjDh1uSV3ibtFnoDATO1-38" value="mis." style="text;html=1;resizable=0;labelBackgroundColor=default;align=center;verticalAlign=middle;fontColor=#333333;fontSize=13.3;" parent="AjDh1uSV3ibtFnoDATO1-37" vertex="1">
                    <mxGeometry x="-0.8230508370539892" relative="1" as="geometry">
                        <mxPoint x="-7" y="-9" as="offset"/>
                    </mxGeometry>
                </mxCell>
                <mxCell id="8" style="edgeStyle=none;shape=connector;rounded=0;html=1;exitX=0.75;exitY=0;exitDx=0;exitDy=0;entryX=0.364;entryY=1.003;entryDx=0;entryDy=0;labelBackgroundColor=default;fontFamily=Helvetica;fontSize=13;fontColor=default;startArrow=none;endArrow=block;endFill=1;strokeColor=#3a414a;strokeWidth=0.8;entryPerimeter=0;" edge="1" parent="1" source="2" target="5">
                    <mxGeometry relative="1" as="geometry"/>
                </mxCell>
                <UserObject label="" lucidchartObjectId="2l-WcpgqR~d0" id="2">
                    <mxCell style="html=1;overflow=block;blockSpacing=1;whiteSpace=wrap;fontSize=13.3;fontColor=#3a414a;spacing=9;strokeColor=#3a414a;strokeOpacity=100;rounded=1;absoluteArcSize=1;arcSize=9;strokeWidth=0.8;" vertex="1" parent="1">
                        <mxGeometry x="51.25" y="475" width="30" height="20" as="geometry"/>
                    </mxCell>
                </UserObject>
                <mxCell id="7" style="edgeStyle=none;shape=connector;rounded=0;html=1;exitX=0.75;exitY=0;exitDx=0;exitDy=0;entryX=0.75;entryY=1;entryDx=0;entryDy=0;labelBackgroundColor=default;fontFamily=Helvetica;fontSize=13;fontColor=default;startArrow=none;endArrow=block;endFill=1;strokeColor=#3a414a;strokeWidth=0.8;" edge="1" parent="1" source="3" target="5">
                    <mxGeometry relative="1" as="geometry"/>
                </mxCell>
                <UserObject label="" lucidchartObjectId="2l-WcpgqR~d0" id="3">
                    <mxCell style="html=1;overflow=block;blockSpacing=1;whiteSpace=wrap;fontSize=13.3;fontColor=#3a414a;spacing=9;strokeColor=#3a414a;strokeOpacity=100;rounded=1;absoluteArcSize=1;arcSize=9;strokeWidth=0.8;" vertex="1" parent="1">
                        <mxGeometry x="121.25" y="475" width="30" height="20" as="geometry"/>
                    </mxCell>
                </UserObject>
                <mxCell id="9" style="edgeStyle=none;shape=connector;rounded=0;html=1;exitX=0.25;exitY=1;exitDx=0;exitDy=0;entryX=0.25;entryY=0;entryDx=0;entryDy=0;labelBackgroundColor=default;fontFamily=Helvetica;fontSize=13;fontColor=default;startArrow=none;endArrow=block;endFill=1;strokeColor=#3a414a;strokeWidth=0.8;" edge="1" parent="1" source="5" target="2">
                    <mxGeometry relative="1" as="geometry"/>
                </mxCell>
                <mxCell id="10" style="edgeStyle=none;shape=connector;rounded=0;html=1;exitX=0.622;exitY=1;exitDx=0;exitDy=0;entryX=0.25;entryY=0;entryDx=0;entryDy=0;labelBackgroundColor=default;fontFamily=Helvetica;fontSize=13;fontColor=default;startArrow=none;endArrow=block;endFill=1;strokeColor=#3a414a;strokeWidth=0.8;exitPerimeter=0;" edge="1" parent="1" source="5" target="3">
                    <mxGeometry relative="1" as="geometry"/>
                </mxCell>
                <UserObject label="Polling&lt;br&gt;SubSystem" lucidchartObjectId="Jl-WSXr9GluP" id="5">
                    <mxCell style="html=1;overflow=block;blockSpacing=1;whiteSpace=wrap;fontSize=13.3;fontColor=#3a414a;spacing=9;strokeColor=#3a414a;strokeOpacity=100;rounded=1;absoluteArcSize=1;arcSize=9;strokeWidth=0.8;" vertex="1" parent="1">
                        <mxGeometry x="61.25" y="406" width="80" height="52" as="geometry"/>
                    </mxCell>
                </UserObject>
                <UserObject label="..." lucidchartObjectId="YM-Wz0fWAmKd" id="11">
                    <mxCell style="html=1;overflow=block;blockSpacing=1;whiteSpace=wrap;fontSize=13.3;fontColor=#3a414a;spacing=3.8;strokeOpacity=0;fillOpacity=0;rounded=1;absoluteArcSize=1;arcSize=9;fillColor=#ffffff;strokeWidth=0.8;" vertex="1" parent="1">
                        <mxGeometry x="81.25" y="470" width="40" height="30" as="geometry"/>
                    </mxCell>
                </UserObject>
                <mxCell id="14" value="" style="group" vertex="1" connectable="0" parent="1">
                    <mxGeometry x="397" y="130" width="120" height="45" as="geometry"/>
                </mxCell>
                <UserObject label="Gmail" lucidchartObjectId="tk-WQldZdK2I" id="AjDh1uSV3ibtFnoDATO1-3">
                    <mxCell style="html=1;overflow=block;blockSpacing=1;whiteSpace=wrap;fontSize=13.3;fontColor=#3a414a;align=right;spacing=9;strokeColor=#3a414a;strokeOpacity=100;rounded=1;absoluteArcSize=1;arcSize=9;strokeWidth=0.8;" parent="14" vertex="1">
                        <mxGeometry width="120" height="45" as="geometry"/>
                    </mxCell>
                </UserObject>
                <UserObject label="" lucidchartObjectId="YU-WSK1UwJkH" id="AjDh1uSV3ibtFnoDATO1-40">
                    <mxCell style="html=1;overflow=block;blockSpacing=1;whiteSpace=wrap;shape=image;fontSize=13;spacing=0;strokeColor=none;strokeOpacity=100;strokeWidth=0;image=https://images.lucid.app/images/e8a829c1-7bd4-477f-892e-91b5dd03bcad/content;imageAspect=0;" parent="14" vertex="1">
                        <mxGeometry x="10" y="7" width="41" height="31" as="geometry"/>
                    </mxCell>
                </UserObject>
                <mxCell id="15" value="" style="group" vertex="1" connectable="0" parent="1">
                    <mxGeometry x="367" y="261" width="120" height="96" as="geometry"/>
                </mxCell>
                <UserObject label="&lt;div align=&quot;center&quot;&gt;Ardeeno WebApp&lt;/div&gt;" lucidchartObjectId=".j-WOExRldNC" id="AjDh1uSV3ibtFnoDATO1-2">
                    <mxCell style="overflow=block;blockSpacing=1;fontSize=13.3;fontColor=#ffffff;align=center;spacingBottom=0;spacing=15;verticalAlign=bottom;strokeColor=#3a414a;strokeOpacity=100;fillOpacity=100;rounded=1;absoluteArcSize=1;arcSize=9;fillColor=#00979d;strokeWidth=0.8;labelPosition=center;verticalLabelPosition=middle;html=1;whiteSpace=wrap;" parent="15" vertex="1">
                        <mxGeometry y="6" width="120" height="90" as="geometry"/>
                    </mxCell>
                </UserObject>
                <UserObject label="" lucidchartObjectId="D9-WzaE7UqTB" id="AjDh1uSV3ibtFnoDATO1-43">
                    <mxCell style="html=1;overflow=block;blockSpacing=1;whiteSpace=wrap;shape=image;fontSize=13;spacing=0;strokeColor=none;strokeOpacity=100;strokeWidth=0;image=https://images.lucid.app/images/5a589f17-526a-4e7e-b2b5-0d7e1bbfdedf/content;imageAspect=0;aspect=fixed;" parent="15" vertex="1">
                        <mxGeometry x="33" y="-2" width="55" height="55" as="geometry"/>
                    </mxCell>
                </UserObject>
                <mxCell id="16" value="" style="group" vertex="1" connectable="0" parent="1">
                    <mxGeometry x="558" y="466" width="120" height="45" as="geometry"/>
                </mxCell>
                <UserObject label="TrustPilot" lucidchartObjectId=".k-Wsw1UDpvh" id="AjDh1uSV3ibtFnoDATO1-7">
                    <mxCell style="html=1;overflow=block;blockSpacing=1;whiteSpace=wrap;fontSize=13.3;fontColor=#3a414a;align=right;spacing=9;strokeColor=#3a414a;strokeOpacity=100;rounded=1;absoluteArcSize=1;arcSize=9;strokeWidth=0.8;" parent="16" vertex="1">
                        <mxGeometry width="120" height="45" as="geometry"/>
                    </mxCell>
                </UserObject>
                <UserObject label="" lucidchartObjectId="j1-WKJIfv-yD" id="AjDh1uSV3ibtFnoDATO1-42">
                    <mxCell style="html=1;overflow=block;blockSpacing=1;whiteSpace=wrap;shape=image;fontSize=13;spacing=0;strokeColor=none;strokeOpacity=100;strokeWidth=0;image=https://images.lucid.app/images/8cadb92e-3e0e-4dbf-98e3-ebe77ee66160/content;imageAspect=0;" parent="16" vertex="1">
                        <mxGeometry x="7" y="3" width="38" height="38" as="geometry"/>
                    </mxCell>
                </UserObject>
                <mxCell id="18" value="" style="group" vertex="1" connectable="0" parent="1">
                    <mxGeometry x="600" y="209" width="150" height="45" as="geometry"/>
                </mxCell>
                <mxCell id="13" value="" style="group" vertex="1" connectable="0" parent="18">
                    <mxGeometry width="150" height="45" as="geometry"/>
                </mxCell>
                <UserObject label="OpenStreetMap" lucidchartObjectId="Hk-W-6c.HbA8" id="AjDh1uSV3ibtFnoDATO1-4">
                    <mxCell style="html=1;overflow=block;blockSpacing=1;whiteSpace=wrap;fontSize=13.3;fontColor=#3a414a;align=right;spacing=9;strokeColor=#3a414a;strokeOpacity=100;rounded=1;absoluteArcSize=1;arcSize=9;strokeWidth=0.8;" parent="13" vertex="1">
                        <mxGeometry width="150" height="45" as="geometry"/>
                    </mxCell>
                </UserObject>
                <UserObject label="" lucidchartObjectId="zQ-WwbgpfTzr" id="AjDh1uSV3ibtFnoDATO1-39">
                    <mxCell style="html=1;overflow=block;blockSpacing=1;whiteSpace=wrap;shape=image;fontSize=13;spacing=0;strokeColor=none;strokeOpacity=100;strokeWidth=0;image=https://images.lucid.app/images/0585b99e-7eb5-46c2-9262-050191fe44d9/content;imageAspect=0;aspect=fixed;" parent="13" vertex="1">
                        <mxGeometry x="3" y="2.5" width="40" height="40" as="geometry"/>
                    </mxCell>
                </UserObject>
                <mxCell id="19" value="" style="group" vertex="1" connectable="0" parent="1">
                    <mxGeometry x="397" y="466.38" width="120" height="45" as="geometry"/>
                </mxCell>
                <mxCell id="20" value="" style="group" vertex="1" connectable="0" parent="19">
                    <mxGeometry width="120" height="45" as="geometry"/>
                </mxCell>
                <UserObject label="Paypal" lucidchartObjectId="3k-Wvu~ebwIA" id="AjDh1uSV3ibtFnoDATO1-6">
                    <mxCell style="html=1;overflow=block;blockSpacing=1;whiteSpace=wrap;fontSize=13.3;fontColor=#3a414a;align=right;spacing=9;strokeColor=#3a414a;strokeOpacity=100;rounded=1;absoluteArcSize=1;arcSize=9;strokeWidth=0.8;" parent="20" vertex="1">
                        <mxGeometry width="120" height="45" as="geometry"/>
                    </mxCell>
                </UserObject>
                <UserObject label="" lucidchartObjectId="ZU-WNIr4s3L3" id="AjDh1uSV3ibtFnoDATO1-41">
                    <mxCell style="html=1;overflow=block;blockSpacing=1;whiteSpace=wrap;shape=image;fontSize=13;spacing=0;strokeColor=none;strokeOpacity=100;strokeWidth=0;image=https://images.lucid.app/images/e40a0105-0b89-44ce-9859-10d6419ac3e8/content;imageAspect=0;" parent="20" vertex="1">
                        <mxGeometry x="7" y="4" width="32" height="38" as="geometry"/>
                    </mxCell>
                </UserObject>
            </root>
        </mxGraphModel>
    </diagram>
</mxfile>